<?xml version="1.0" encoding="utf-8"?>
<!-- Generator: Adobe Illustrator 21.0.0, SVG Export Plug-In . SVG Version: 6.00 Build 0)  -->
<svg version="1.1" id="Layer_1" xmlns="http://www.w3.org/2000/svg" xmlns:xlink="http://www.w3.org/1999/xlink" x="0px" y="0px"
	 viewBox="0 0 40 33" style="enable-background:new 0 0 40 33;" xml:space="preserve">
<style type="text/css">
	.st0{fill:#FFFFFF;}
	.st1{fill:#BC9A6A;}
</style>
<g id="XMLID_18_">
	<g>
		<path class="st0" d="M20.6,12.9v4.5L36.8,12V7.5L20.6,12.9z M20.6,32L36,26.7V13.2l-15.4,5.1V32z M3.2,12l16.2,5.5V13L3.2,7.5V12z
			 M4,26.7L19.4,32V18.3L4,13.2V26.7z M20,1L3.7,6.6L20,12.2l16.3-5.6L20,1z"/>
	</g>
</g>
<path id="XMLID_8_" class="st1" d="M25.7,20.6v4.7l5.3-1.8v-4.6L25.7,20.6z"/>
<path id="XMLID_10_" class="st1" d="M8.3,19v4.6l5.3,1.8v-4.7L8.3,19z"/>
</svg>
