<?xml version="1.0" encoding="utf-8"?>
<!-- Generator: Adobe Illustrator 21.0.0, SVG Export Plug-In . SVG Version: 6.00 Build 0)  -->
<svg version="1.1" id="Layer_1" xmlns="http://www.w3.org/2000/svg" xmlns:xlink="http://www.w3.org/1999/xlink" x="0px" y="0px"
	 viewBox="0 0 192 124" style="enable-background:new 0 0 192 124;" xml:space="preserve">
<style type="text/css">
	.st0{fill:#B08F6E;}
</style>
<g>
	<rect x="2.2" y="3.5" width="188" height="118"/>
	<path class="st0" d="M0.1,0v124h191.9V0H0.1z M185.6,117.3H6.9V6.6h178.7V117.3z"/>
	<g>
		<g>
			<path class="st0" d="M55.4,40.1c-0.1-2.5-0.3-5.5-0.3-7.7h-0.1c-0.6,2.1-1.3,4.3-2.2,6.8l-3.1,8.6h-1.7L45,39.3
				c-0.8-2.5-1.6-4.8-2.1-6.9h-0.1c-0.1,2.2-0.2,5.2-0.3,7.9l-0.5,7.6h-2.2l1.2-17.8h2.9l3,8.6c0.7,2.2,1.3,4.1,1.8,6H49
				c0.5-1.8,1.1-3.7,1.9-6l3.2-8.6H57l1.1,17.8h-2.2L55.4,40.1z"/>
			<path class="st0" d="M68.3,42.3l-1.9,5.6H64l6.1-17.8h2.8L79,47.9h-2.5l-1.9-5.6H68.3z M74.1,40.5l-1.7-5.1
				c-0.4-1.2-0.7-2.2-0.9-3.2h-0.1c-0.3,1.1-0.6,2.1-0.9,3.2l-1.7,5.1H74.1z"/>
			<path class="st0" d="M87.9,30.1v17.8h-2.3V30.1H87.9z"/>
			<path class="st0" d="M95.5,45.1c1,0.6,2.5,1.2,4.1,1.2c2.4,0,3.7-1.2,3.7-3c0-1.7-1-2.6-3.4-3.5c-2.9-1-4.7-2.5-4.7-5
				c0-2.8,2.3-4.8,5.8-4.8c1.8,0,3.1,0.4,3.9,0.9l-0.6,1.9c-0.6-0.3-1.8-0.8-3.4-0.8c-2.4,0-3.4,1.5-3.4,2.7c0,1.7,1.1,2.5,3.5,3.4
				c3,1.2,4.6,2.6,4.6,5.2c0,2.7-2,5.1-6.2,5.1c-1.7,0-3.6-0.5-4.6-1.1L95.5,45.1z"/>
			<path class="st0" d="M128.1,38.8c0,6.1-3.7,9.4-8.3,9.4c-4.7,0-8-3.6-8-9c0-5.6,3.5-9.3,8.3-9.3C125,29.8,128.1,33.6,128.1,38.8z
				 M114.3,39.1c0,3.8,2.1,7.2,5.7,7.2c3.7,0,5.7-3.4,5.7-7.4c0-3.5-1.9-7.2-5.7-7.2C116.2,31.7,114.3,35.2,114.3,39.1z"/>
			<path class="st0" d="M135.1,47.9V30.1h2.5l5.7,9c1.3,2.1,2.4,4,3.2,5.8l0.1,0c-0.2-2.4-0.3-4.5-0.3-7.3v-7.4h2.2v17.8h-2.3
				l-5.7-9c-1.2-2-2.4-4-3.3-5.9l-0.1,0c0.1,2.2,0.2,4.4,0.2,7.3v7.6H135.1z"/>
		</g>
	</g>
	<g>
		<g>
			<path class="st0" d="M39.8,78.3H50v2h-7.7v6.3h7.1v2h-7.1v8.5h-2.4V78.3z"/>
			<path class="st0" d="M58.3,78.3h2.4v16.8h8.1v2H58.3V78.3z"/>
			<path class="st0" d="M86.3,88.3h-7.3v6.8h8.2v2H76.5V78.3h10.2v2h-7.8v6h7.3V88.3z"/>
			<path class="st0" d="M97.6,78.3v11.2c0,4.2,1.9,6,4.4,6c2.8,0,4.6-1.8,4.6-6V78.3h2.5v11c0,5.8-3.1,8.2-7.1,8.2
				c-3.9,0-6.8-2.2-6.8-8.1V78.3H97.6z"/>
			<path class="st0" d="M118.2,78.6c1.2-0.3,3-0.4,4.7-0.4c2.6,0,4.3,0.5,5.5,1.5c1,0.8,1.5,2.1,1.5,3.6c0,2.5-1.6,4.1-3.6,4.8v0.1
				c1.5,0.5,2.3,1.9,2.8,3.8c0.6,2.6,1.1,4.5,1.5,5.2H128c-0.3-0.5-0.7-2.2-1.3-4.5c-0.6-2.6-1.6-3.6-3.8-3.7h-2.3v8.2h-2.4V78.6z
				 M120.6,87.2h2.5c2.6,0,4.3-1.4,4.3-3.6c0-2.4-1.8-3.5-4.3-3.5c-1.2,0-2,0.1-2.4,0.2V87.2z"/>
			<path class="st0" d="M137.9,94.2c1.1,0.7,2.7,1.2,4.4,1.2c2.5,0,4-1.3,4-3.2c0-1.8-1-2.8-3.6-3.8c-3.1-1.1-5-2.7-5-5.4
				c0-2.9,2.4-5.1,6.1-5.1c1.9,0,3.3,0.4,4.2,0.9l-0.7,2c-0.6-0.3-1.9-0.9-3.6-0.9c-2.6,0-3.6,1.5-3.6,2.8c0,1.8,1.1,2.6,3.8,3.6
				c3.2,1.2,4.8,2.8,4.8,5.5c0,2.9-2.2,5.4-6.6,5.4c-1.8,0-3.8-0.5-4.8-1.2L137.9,94.2z"/>
		</g>
	</g>
	<g>
		<g>
			<path class="st0" d="M87.3,60.4c0.5-0.1,1.1-0.1,1.8-0.1c1.2,0,2.1,0.3,2.7,0.8c0.6,0.5,0.9,1.3,0.9,2.4c0,1.1-0.3,2-1,2.6
				c-0.6,0.6-1.7,1-2.9,1c-0.6,0-1.1,0-1.6-0.1V60.4z M88.2,66.3c0.2,0,0.5,0,0.9,0c1.8,0,2.8-1,2.8-2.8c0-1.6-0.9-2.6-2.7-2.6
				c-0.4,0-0.8,0-1,0.1V66.3z"/>
			<path class="st0" d="M98.3,63.9h-2.6v2.4h2.9V67h-3.7v-6.7h3.6v0.7h-2.7v2.1h2.6V63.9z"/>
			<path class="st0" d="M100.6,66c0.4,0.2,0.9,0.4,1.5,0.4c0.9,0,1.4-0.5,1.4-1.1c0-0.6-0.4-1-1.3-1.3c-1.1-0.4-1.8-0.9-1.8-1.9
				c0-1,0.9-1.8,2.2-1.8c0.7,0,1.2,0.2,1.5,0.3l-0.2,0.7c-0.2-0.1-0.7-0.3-1.3-0.3c-0.9,0-1.3,0.5-1.3,1c0,0.6,0.4,0.9,1.3,1.3
				c1.1,0.4,1.7,1,1.7,2c0,1-0.8,1.9-2.3,1.9c-0.6,0-1.3-0.2-1.7-0.4L100.6,66z"/>
		</g>
	</g>
	<g>
		<circle cx="182.7" cy="8.8" r="6.1"/>
		<path class="st0" d="M189.4,8.8c0-3.6-2.9-6.5-6.5-6.5c-3.6,0-6.5,2.9-6.5,6.5c0,3.6,2.9,6.5,6.5,6.5
			C186.5,15.4,189.4,12.4,189.4,8.8z M177.2,8.8c0-3.1,2.5-5.7,5.7-5.7c3.1,0,5.7,2.5,5.7,5.7c0,3.1-2.5,5.7-5.7,5.7
			C179.7,14.5,177.2,11.9,177.2,8.8z"/>
		<path class="st0" d="M188.1,8.8c0-3.1-2.5-5.6-5.6-5.6c-3.1,0-5.6,2.5-5.6,5.6c0,3.1,2.5,5.6,5.6,5.6
			C185.6,14.4,188.1,11.9,188.1,8.8z M178.4,8.8c0-2.3,1.9-4.2,4.2-4.2c2.3,0,4.2,1.9,4.2,4.2c0,2.3-1.9,4.2-4.2,4.2
			C180.3,13.1,178.4,11.2,178.4,8.8z"/>
		<circle class="st0" cx="183" cy="8.6" r="4.2"/>
		<circle cx="182.7" cy="8.8" r="2.6"/>
	</g>
	<g>
		<circle cx="9.1" cy="8.8" r="6.1"/>
		<path class="st0" d="M2.4,8.8c0,3.6,2.9,6.5,6.5,6.5c3.6,0,6.5-2.9,6.5-6.5c0-3.6-2.9-6.5-6.5-6.5C5.3,2.3,2.4,5.2,2.4,8.8z
			 M14.6,8.8c0,3.1-2.5,5.7-5.7,5.7c-3.1,0-5.7-2.5-5.7-5.7c0-3.1,2.5-5.7,5.7-5.7C12.1,3.2,14.6,5.7,14.6,8.8z"/>
		<path class="st0" d="M3.7,8.8c0,3.1,2.5,5.6,5.6,5.6c3.1,0,5.6-2.5,5.6-5.6c0-3.1-2.5-5.6-5.6-5.6C6.2,3.2,3.7,5.7,3.7,8.8z
			 M13.4,8.8c0,2.3-1.9,4.2-4.2,4.2c-2.3,0-4.2-1.9-4.2-4.2c0-2.3,1.9-4.2,4.2-4.2C11.5,4.6,13.4,6.5,13.4,8.8z"/>
		<circle class="st0" cx="8.8" cy="9" r="4.2"/>
		<circle cx="9.1" cy="8.8" r="2.6"/>
	</g>
	<g>
		<circle cx="182.7" cy="115.2" r="6.1"/>
		<path class="st0" d="M189.4,115.2c0-3.6-2.9-6.5-6.5-6.5c-3.6,0-6.5,2.9-6.5,6.5c0,3.6,2.9,6.5,6.5,6.5
			C186.5,121.7,189.4,118.8,189.4,115.2z M177.2,115.2c0-3.1,2.5-5.7,5.7-5.7c3.1,0,5.7,2.5,5.7,5.7c0,3.1-2.5,5.7-5.7,5.7
			C179.7,120.9,177.2,118.3,177.2,115.2z"/>
		<path class="st0" d="M188.1,115.2c0-3.1-2.5-5.6-5.6-5.6c-3.1,0-5.6,2.5-5.6,5.6c0,3.1,2.5,5.6,5.6,5.6
			C185.6,120.8,188.1,118.3,188.1,115.2z M178.4,115.2c0-2.3,1.9-4.2,4.2-4.2c2.3,0,4.2,1.9,4.2,4.2c0,2.3-1.9,4.2-4.2,4.2
			C180.3,119.4,178.4,117.5,178.4,115.2z"/>
		<circle class="st0" cx="183" cy="115" r="4.2"/>
		<circle cx="182.7" cy="115.2" r="2.6"/>
	</g>
	<g>
		<circle cx="9.1" cy="115.2" r="6.1"/>
		<path class="st0" d="M2.4,115.2c0,3.6,2.9,6.5,6.5,6.5c3.6,0,6.5-2.9,6.5-6.5c0-3.6-2.9-6.5-6.5-6.5
			C5.3,108.7,2.4,111.6,2.4,115.2z M14.6,115.2c0,3.1-2.5,5.7-5.7,5.7c-3.1,0-5.7-2.5-5.7-5.7c0-3.1,2.5-5.7,5.7-5.7
			C12.1,109.5,14.6,112.1,14.6,115.2z"/>
		<path class="st0" d="M3.7,115.2c0,3.1,2.5,5.6,5.6,5.6c3.1,0,5.6-2.5,5.6-5.6c0-3.1-2.5-5.6-5.6-5.6
			C6.2,109.6,3.7,112.1,3.7,115.2z M13.4,115.2c0,2.3-1.9,4.2-4.2,4.2c-2.3,0-4.2-1.9-4.2-4.2c0-2.3,1.9-4.2,4.2-4.2
			C11.5,111,13.4,112.9,13.4,115.2z"/>
		<circle class="st0" cx="8.8" cy="115.4" r="4.2"/>
		<circle cx="9.1" cy="115.2" r="2.6"/>
	</g>
</g>
</svg>
